<svg width="605" height="605" viewBox="0 0 605 605" fill="none" xmlns="http://www.w3.org/2000/svg">
<circle cx="177.5" cy="177.5" r="52" fill="white" stroke="black"/>
<circle cx="302.5" cy="177.5" r="52.5" fill="white"/>
<circle cx="177.5" cy="302.5" r="52.5" fill="white"/>
<circle cx="427.5" cy="302.5" r="52.5" fill="white"/>
<circle cx="302.5" cy="427.5" r="52.5" fill="white"/>
<circle cx="52.5" cy="427.5" r="52.5" fill="white"/>
<circle cx="427.5" cy="427.5" r="52.5" fill="white"/>
<circle cx="552.5" cy="302.5" r="52.5" fill="white"/>
<circle cx="552.5" cy="427.5" r="52.5" fill="white"/>
<circle cx="552.5" cy="302.5" r="52.5" fill="white"/>
<circle cx="552.5" cy="427.5" r="52.5" fill="white"/>
<circle cx="552.5" cy="177.5" r="52.5" fill="white"/>
<circle cx="177.5" cy="177.5" r="52.5" fill="white"/>
<circle cx="177.5" cy="177.5" r="52.5" stroke="black"/>
<circle cx="177.5" cy="302.5" r="52.5" fill="white"/>
<circle cx="52.5" cy="177.5" r="52.5" fill="white"/>
<circle cx="52.5" cy="177.5" r="52.5" stroke="black"/>
<circle cx="177.5" cy="52.5" r="52" stroke="black"/>
<circle cx="177.5" cy="552.5" r="52" stroke="black"/>
<circle cx="52.5" cy="302.5" r="52.5" fill="white"/>
</svg>
